# xmcd
#
# Track frame offsets: 
#        150
#        15874
#        28166
#        39979
#        48891
#        62834
#        90111
#        98780
#        115483
#        132081
#        187253
#
# Disc length: 2632 seconds
#
# Revision: 2
# Processed by: cddbd v1.5.2PL0 Copyright (c) Steve Scherf et al.
# Submitted via: ExactAudioCopy v1.1
#
DISCID=840a460b
DTITLE=Cuby and Blizzards - Forgotten Tapes
DYEAR=1979
DGENRE=Blues
TTITLE0=L.S.D. (Got A Million Dollars)
TTITLE1=Richard Cory
TTITLE2=Feeling Like A Suitcase
TTITLE3=Because Of Illness
TTITLE4=Woman
TTITLE5=On The Road
TTITLE6=Stepping In My Shoes
TTITLE7=You Don't Know
TTITLE8=Session
TTITLE9=That's All Right
TTITLE10=Your Body, Not Your Soul
EXTD=feat. Herman Brood, Harry "Cuby" Muskee, Eelco Gelling, Rob Hoeke
EXTT0=
EXTT1=
EXTT2=
EXTT3=
EXTT4=
EXTT5=
EXTT6=
EXTT7=
EXTT8=
EXTT9=
EXTT10=
PLAYORDER=
